<svg xmlns="http://www.w3.org/2000/svg" width="27.725" height="27.725" viewBox="0 0 27.725 27.725"><defs><style>.a{fill:#595b60;}</style></defs><path class="a" d="M289.356,1077.029a13.862,13.862,0,1,0,13.862,13.863A13.864,13.864,0,0,0,289.356,1077.029Zm6.984,11.068c.007.15.01.3.01.452a9.936,9.936,0,0,1-15.3,8.371,7.271,7.271,0,0,0,.833.048,7.01,7.01,0,0,0,4.339-1.5,3.5,3.5,0,0,1-3.263-2.426,3.5,3.5,0,0,0,1.577-.06,3.5,3.5,0,0,1-2.8-3.425c0-.015,0-.029,0-.044a3.493,3.493,0,0,0,1.582.438,3.5,3.5,0,0,1-1.081-4.665,9.917,9.917,0,0,0,7.2,3.65,3.5,3.5,0,0,1,5.953-3.187,6.99,6.99,0,0,0,2.219-.848,3.5,3.5,0,0,1-1.537,1.932,6.977,6.977,0,0,0,2.007-.55A7.1,7.1,0,0,1,296.34,1088.1Z" transform="translate(-275.493 -1077.029)"/></svg>