<svg xmlns="http://www.w3.org/2000/svg" width="27.725" height="27.726" viewBox="0 0 27.725 27.726"><defs><style>.a{fill:#595b60;}</style></defs><path class="a" d="M90.2,1176.5a13.863,13.863,0,1,0,13.862,13.863A13.863,13.863,0,0,0,90.2,1176.5Zm7.72,20.6a1.13,1.13,0,0,1-1.143,1.116H83.591a1.129,1.129,0,0,1-1.143-1.116v-13.336a1.13,1.13,0,0,1,1.143-1.116H96.773a1.13,1.13,0,0,1,1.143,1.116Z" transform="translate(-76.333 -1176.497)"/><path class="a" d="M102.262,1197.783a2.321,2.321,0,0,0-2.106,1.16v.023h-.015a.166.166,0,0,0,.015-.023v-1H97.82c.03.659,0,7.029,0,7.029h2.336v-3.926a1.605,1.605,0,0,1,.077-.57,1.282,1.282,0,0,1,1.2-.855c.846,0,1.183.645,1.183,1.59v3.761h2.337v-4.03C104.952,1198.787,103.8,1197.783,102.262,1197.783Z" transform="translate(-85.724 -1185.8)"/><path class="a" d="M92.449,1192.054a1.218,1.218,0,1,0-.031,2.43h.016a1.219,1.219,0,1,0,.015-2.43Z" transform="translate(-82.799 -1183.296)"/><rect class="a" width="2.337" height="7.028" transform="translate(8.467 12.148)"/></svg>